<svg width="47" height="47" viewBox="0 0 47 47" fill="none" xmlns="http://www.w3.org/2000/svg">
<path d="M23.3125 46.375C35.9062 46.375 46.1562 36.3438 46.1562 23.6562C46.1562 10.9375 35.9062 0.8125 23.3125 0.8125C10.9688 0.8125 0.59375 10.9375 0.59375 23.6562C0.59375 36.2812 10.7812 46.375 23.3125 46.375ZM23.3125 43.625C12.5625 43.625 3.34375 34.9062 3.34375 23.6562C3.34375 12.4375 12.375 3.5625 23.3125 3.5625C34.5312 3.5625 43.4062 12.4375 43.4062 23.6562C43.4062 34.8438 34.5312 43.625 23.3125 43.625ZM17.7188 24.125C19.625 24.125 20.5312 20.125 20.5312 16.9688C20.5312 14.0625 19.6875 9.8125 17.7188 9.8125C16 9.8125 14.9062 14 14.9062 16.9688C14.9062 19.7812 15.8125 24.125 17.7188 24.125ZM29 24.125C30.9062 24.125 31.7812 20.125 31.7812 16.9688C31.7812 14.0625 30.9375 9.8125 29 9.8125C27.25 9.8125 26.1562 14 26.1562 16.9688C26.1562 19.7812 27.0938 24.125 29 24.125ZM23.4375 39.6875C32.1875 39.6875 39.4688 32.8438 39.4688 23.6875H36.9688C36.9688 31.1562 30.875 37.2188 23.4375 37.2188C15.9062 37.2188 9.78125 31.1562 9.78125 23.6875H7.28125C7.28125 32.3125 14.2812 39.6875 23.4375 39.6875Z" fill="#D5CDC4"/>
</svg>
